<?xml version="1.0" encoding="UTF-8"?>
<svg xmlns="http://www.w3.org/2000/svg" xmlns:xlink="http://www.w3.org/1999/xlink" width="108px" height="108px" viewBox="0 0 108 108" version="1.1">
<g id="surface1">
<path style=" stroke:none;fill-rule:nonzero;fill:rgb(81.960784%,29.411765%,0.784314%);fill-opacity:1;" d="M 73.121094 20.359375 C 71.890625 19.703125 70.640625 19.152344 69.382812 18.6875 C 68.746094 18.449219 68.171875 18.265625 67.636719 18.113281 C 67.085938 17.957031 66.53125 17.832031 65.953125 17.726562 C 57.703125 16.203125 53.511719 20.910156 48.4375 26.578125 C 47.886719 27.195312 47.320312 27.816406 46.894531 28.28125 C 36.578125 39.542969 27.804688 51.53125 20.292969 63.886719 C 12.78125 76.246094 6.546875 88.988281 1.328125 101.734375 C 0.984375 102.578125 0.929688 102.695312 0.894531 102.789062 C 0.0195312 104.84375 -0.40625 105.859375 0.992188 107.195312 C 2.269531 108.40625 3.253906 108.0625 5.1875 107.382812 C 5.699219 107.210938 6.308594 106.988281 6.453125 106.945312 C 17.609375 103.261719 29.328125 97.902344 41.796875 90.359375 C 54.210938 82.84375 67.390625 73.132812 81.496094 60.742188 C 83.375 59.089844 81.148438 61.046875 82.390625 59.96875 C 87.804688 55.238281 91.375 52.128906 90.773438 44.410156 C 90.734375 43.984375 90.683594 43.507812 90.613281 43 C 90.542969 42.496094 90.464844 42.003906 90.367188 41.511719 C 89.886719 39.066406 88.964844 36.675781 87.710938 34.410156 C 87.859375 31.890625 82 26.796875 73.121094 20.359375 Z M 73.121094 20.359375 "/>
<path style=" stroke:none;fill-rule:nonzero;fill:rgb(100%,100%,100%);fill-opacity:1;" d="M 79.058594 56.207031 C 79.625 55.703125 79.273438 56.011719 79.058594 56.207031 Z M 79.058594 56.207031 "/>
<path style=" stroke:none;fill-rule:nonzero;fill:rgb(100%,47.45098%,0%);fill-opacity:1;" d="M 66.09375 44.507812 C 67.015625 45.421875 67.015625 46.914062 66.09375 47.839844 C 65.175781 48.753906 63.671875 48.753906 62.738281 47.839844 L 48.628906 33.835938 C 40.566406 42.90625 33.46875 52.480469 27.203125 62.324219 L 35.921875 70.972656 C 36.84375 71.886719 36.84375 73.378906 35.921875 74.304688 C 35 75.21875 33.496094 75.21875 32.5625 74.304688 L 24.652344 66.453125 L 24.640625 66.472656 C 17.6875 77.925781 11.839844 89.710938 6.894531 101.53125 C 12.511719 99.589844 18.296875 97.179688 24.261719 94.273438 L 17.625 87.707031 C 16.703125 86.792969 16.703125 85.296875 17.625 84.375 C 18.546875 83.460938 20.054688 83.460938 20.984375 84.375 L 28.691406 92.023438 C 32.128906 90.226562 35.621094 88.25 39.183594 86.101562 C 45.625 82.195312 52.28125 77.6875 59.175781 72.507812 L 44.855469 58.316406 C 43.9375 57.402344 43.9375 55.90625 44.855469 54.984375 C 45.777344 54.070312 47.28125 54.070312 48.214844 54.984375 L 62.949219 69.609375 C 67.894531 65.757812 72.960938 61.566406 78.164062 57.007812 L 79.058594 56.21875 C 78.933594 56.328125 78.859375 56.390625 79.058594 56.21875 C 83.339844 52.480469 86.140625 50.03125 85.742188 44.789062 C 85.714844 44.410156 85.667969 44.042969 85.625 43.679688 C 85.570312 43.304688 85.5 42.898438 85.414062 42.453125 C 85.015625 40.402344 84.203125 38.375 83.089844 36.441406 C 81.882812 34.332031 80.289062 32.316406 78.5 30.523438 C 76.90625 28.925781 75.125 27.484375 73.273438 26.265625 C 71.429688 25.050781 69.515625 24.074219 67.636719 23.371094 C 67.203125 23.210938 66.75 23.0625 66.28125 22.929688 C 65.828125 22.808594 65.421875 22.710938 65.046875 22.640625 C 59.59375 21.628906 56.242188 25.375 52.210938 29.875 L 51.792969 30.332031 Z M 66.09375 44.507812 "/>
<path style=" stroke:none;fill-rule:nonzero;fill:rgb(45.882353%,66.666667%,0%);fill-opacity:1;" d="M 107.921875 32.195312 C 103.339844 26.640625 98.304688 23.890625 92.644531 23.914062 C 99.554688 19.109375 104.4375 10.828125 105.253906 2.679688 C 95.929688 3.886719 88.328125 8.621094 83.792969 15.792969 C 84.039062 9.921875 81.285156 4.710938 75.460938 0 C 71.09375 5.441406 69.207031 13.46875 72.867188 20.6875 L 88.40625 35.382812 C 95.328125 38.152344 102.773438 36.253906 107.921875 32.195312 Z M 107.921875 32.195312 "/>
<path style=" stroke:none;fill-rule:nonzero;fill:rgb(28.627451%,54.117647%,4.705882%);fill-opacity:1;" d="M 107.921875 32.195312 C 103.339844 26.640625 98.304688 23.890625 92.644531 23.914062 C 89.0625 26.453125 84.734375 27.53125 79.6875 27.140625 L 88.398438 35.386719 C 95.328125 38.152344 102.773438 36.253906 107.921875 32.195312 Z M 107.921875 32.195312 "/>
</g>
</svg>
